<svg width="40" height="40" viewBox="0 0 40 40" fill="none" xmlns="http://www.w3.org/2000/svg">
<circle cx="20" cy="20" r="20" fill="white"/>
<path d="M27.1193 23.683L29.0439 21.3239C29.2583 21.072 29.0988 20.6555 28.7645 20.6281L27.8331 20.5057C28.1501 17.5895 26.887 14.5976 24.2989 12.8488C21.2567 10.7932 17.3235 11.0677 14.6045 13.2647C14.2633 13.5412 14.2903 14.0886 14.6536 14.334C14.8958 14.4977 15.2202 14.4744 15.4492 14.2985C17.7252 12.4634 21.0097 12.2357 23.5524 13.9538C25.7167 15.4162 26.7803 17.9205 26.5119 20.3406L25.5551 20.2232C25.216 20.1704 24.9705 20.5337 25.1055 20.8233L26.3751 23.5771C26.5254 23.8768 26.9153 23.9198 27.1194 23.683L27.1193 23.683Z" fill="#170921"/>
<path d="M15.177 26.3495C18.2192 28.4051 22.1524 28.1307 24.8714 25.9336C25.2126 25.6572 25.1856 25.1098 24.8223 24.8643C24.5801 24.7006 24.2557 24.724 24.0267 24.8998C21.7507 26.7349 18.4662 26.9626 15.9235 25.2445C13.7592 23.7821 12.6956 21.2778 12.964 18.8578L13.9208 18.9751C14.2599 19.0279 14.5054 18.6646 14.3704 18.375L13.1007 15.6212C12.9658 15.3316 12.576 15.2886 12.3718 15.5254L10.4575 17.8693C10.2431 18.1212 10.4025 18.5377 10.7368 18.5651L11.6683 18.6875C11.3256 21.6088 12.5888 24.6008 15.177 26.3496L15.177 26.3495Z" fill="#170921"/>
</svg>
